<svg width="39" height="24" viewBox="0 0 39 24" fill="none" xmlns="http://www.w3.org/2000/svg">
<g clip-path="url(#clip0_1620_357)">
<path d="M7.97042 4.70352C14.3157 -1.509 24.6033 -1.509 30.9486 4.70352L31.7122 5.4512C32.0295 5.76183 32.0295 6.26545 31.7122 6.57608L29.0999 9.13377C28.9413 9.28908 28.6841 9.28908 28.5254 9.13377L27.4746 8.10486C23.048 3.77085 15.871 3.77085 11.4444 8.10486L10.319 9.20674C10.1604 9.36205 9.90319 9.36205 9.74456 9.20674L7.13223 6.64905C6.81497 6.33842 6.81497 5.8348 7.13223 5.52417L7.97042 4.70352ZM36.3511 9.99308L38.6761 12.2694C38.9933 12.5801 38.9933 13.0837 38.6761 13.3943L28.1926 23.6587C27.8753 23.9693 27.361 23.9693 27.0437 23.6587C27.0437 23.6587 27.0437 23.6587 27.0437 23.6587L19.6032 16.3738C19.5238 16.2961 19.3952 16.2961 19.3159 16.3738C19.3159 16.3738 19.3159 16.3738 19.3159 16.3738L11.8755 23.6587C11.5583 23.9693 11.0439 23.9693 10.7266 23.6587C10.7266 23.6587 10.7266 23.6587 10.7266 23.6587L0.24286 13.3942C-0.0744021 13.0836 -0.0744021 12.5799 0.24286 12.2693L2.56784 9.99295C2.8851 9.68233 3.39949 9.68233 3.71675 9.99295L11.1574 17.278C11.2367 17.3556 11.3653 17.3556 11.4446 17.278C11.4446 17.278 11.4446 17.278 11.4446 17.278L18.8849 9.99295C19.2021 9.68232 19.7165 9.68231 20.0338 9.99293C20.0338 9.99292 20.0338 9.99293 20.0338 9.99293L27.4745 17.278C27.5538 17.3556 27.6824 17.3556 27.7617 17.278L35.2022 9.99308C35.5195 9.68246 36.0338 9.68246 36.3511 9.99308Z" fill="#3B99FC"/>
</g>
<defs>
<clipPath id="clip0_1620_357">
<rect width="38.9189" height="24" fill="white"/>
</clipPath>
</defs>
</svg>
